# xmcd CD database file
#
# Track frame offsets:
#	150
#	18246
#	30658
#	47695
#	67630
#	90073
#	105438
#	118741
#	129815
#	148412
#	161381
#	178530
#	200750
#
# Disc length: 2912 seconds
#
# Revision: 0
# Processed by: cddbd v1.5.2PL0 Copyright (c) Steve Scherf et al.
# Submitted via: CDex 1.70beta2
#
DISCID=9c0b5e0d
DTITLE=McIlmoyle, Ginny - Cdn. - Who Hung the Moon
DYEAR=2009
DGENRE=Country
TTITLE0=I Gotta Know
TTITLE1=Hang On Baby
TTITLE2=Hold On (Never Let Me Go)
TTITLE3=Somebodiesd Grampa
TTITLE4=Honky Tonk Blues
TTITLE5=As Long As Your In My Life
TTITLE6=Who Hung the Moon 
TTITLE7=Rock-A-Billy
TTITLE8=Highway of Heros
TTITLE9=Lean On
TTITLE10=Done From My Life
TTITLE11=Not Even There
TTITLE12=Remember Me
EXTD=YEAR: 2009
EXTT0=
EXTT1=
EXTT2=
EXTT3=
EXTT4=
EXTT5=
EXTT6=
EXTT7=
EXTT8=
EXTT9=
EXTT10=
EXTT11=
EXTT12=
PLAYORDER=
